<svg width="28" height="21" viewBox="0 0 28 21" fill="none" xmlns="http://www.w3.org/2000/svg">
<path d="M25.375 0H2.62502C1.17749 0 0 1.17491 0 2.61925V18.3346C0 19.779 1.17749 20.9539 2.62502 20.9539H25.375C26.8225 20.9539 28 19.779 28 18.3346V2.61925C28 1.17491 26.8225 0 25.375 0ZM25.375 1.74615C25.4938 1.74615 25.6069 1.77076 25.7103 1.81374L14 11.9409L2.28958 1.81374C2.39298 1.77081 2.50607 1.74615 2.62496 1.74615H25.375ZM25.375 19.2077H2.62502C2.14224 19.2077 1.74999 18.8163 1.74999 18.3346V3.65856L13.4266 13.7561C13.5915 13.8984 13.7958 13.9692 14 13.9692C14.2042 13.9692 14.4084 13.8985 14.5734 13.7561L26.25 3.65856V18.3346C26.2499 18.8163 25.8577 19.2077 25.375 19.2077Z" fill="white"/>
</svg>
