<svg width="29" height="29" viewBox="0 0 29 29" fill="none" xmlns="http://www.w3.org/2000/svg">
<path d="M21.15 0H7.85004C3.52145 0 0 3.51372 0 7.83279V21.1037C0 25.4226 3.52145 28.9363 7.85004 28.9363H21.1502C25.4785 28.9363 29 25.4226 29 21.1037V7.83279C29 3.51372 25.4785 0 21.15 0V0ZM27.2999 21.1037C27.2999 24.4872 24.5411 27.2399 21.15 27.2399H7.85004C4.4589 27.2399 1.7001 24.4872 1.7001 21.1037V7.83279C1.7001 4.4491 4.4589 1.69637 7.85004 1.69637H21.1502C24.5411 1.69637 27.2999 4.4491 27.2999 7.83279V21.1037Z" fill="white"/>
<path d="M14.5 6.55615C10.1276 6.55615 6.57056 10.1054 6.57056 14.4681C6.57056 18.8309 10.1276 22.3801 14.5 22.3801C18.8724 22.3801 22.4295 18.8309 22.4295 14.4681C22.4295 10.1054 18.8724 6.55615 14.5 6.55615ZM14.5 20.6838C11.0653 20.6838 8.27066 17.8955 8.27066 14.4681C8.27066 11.041 11.0653 8.25251 14.5 8.25251C17.935 8.25251 20.7294 11.041 20.7294 14.4681C20.7294 17.8955 17.935 20.6838 14.5 20.6838Z" fill="white"/>
<path d="M22.6191 3.74609C21.3269 3.74609 20.276 4.79495 20.276 6.084C20.276 7.37326 21.3269 8.42212 22.6191 8.42212C23.9112 8.42212 24.9623 7.37326 24.9623 6.084C24.9623 4.79473 23.9112 3.74609 22.6191 3.74609ZM22.6191 6.72554C22.2646 6.72554 21.9761 6.43766 21.9761 6.084C21.9761 5.73011 22.2646 5.44245 22.6191 5.44245C22.9737 5.44245 23.2622 5.73011 23.2622 6.084C23.2622 6.43766 22.9737 6.72554 22.6191 6.72554Z" fill="white"/>
</svg>
