<svg width="28" height="24" viewBox="0 0 28 24" fill="none" xmlns="http://www.w3.org/2000/svg">
<path d="M27.5676 0.647134C27.2256 0.22978 26.7133 0 26.125 0C25.8052 0 25.4664 0.0671434 25.1182 0.199938L1.41679 9.22763C0.158979 9.70659 -0.0104235 10.4253 0.000471191 10.8111C0.0113659 11.197 0.221357 11.9051 1.50437 12.3124C1.51206 12.3147 1.51975 12.3171 1.52745 12.3192L6.44375 13.723L9.1025 21.3092C9.46502 22.3434 10.2787 22.9858 11.2263 22.9858C11.8238 22.9858 12.4115 22.736 12.9259 22.2637L15.9668 19.4699L20.3775 23.0135C20.3779 23.014 20.3786 23.0142 20.379 23.0146L20.4209 23.0483C20.4247 23.0513 20.4288 23.0545 20.4326 23.0575C20.9229 23.4369 21.458 23.6372 21.9807 23.6375H21.9809C23.0023 23.6375 23.8155 22.8831 24.0524 21.7159L27.9359 2.58236C28.0918 1.81436 27.9611 1.12716 27.5676 0.647134ZM8.08843 13.4564L17.5735 8.62142L11.6675 14.8832C11.5707 14.9858 11.5021 15.1113 11.4684 15.2479L10.3295 19.8508L8.08843 13.4564ZM11.8144 21.0594C11.7751 21.0954 11.7356 21.1276 11.6961 21.1572L12.7527 16.8873L14.6746 18.4316L11.8144 21.0594ZM26.328 2.2573L22.4445 21.391C22.4071 21.5741 22.2877 22.0002 21.9807 22.0002C21.8291 22.0002 21.6385 21.9177 21.4435 21.7679L16.4456 17.7525C16.4449 17.7519 16.4441 17.7512 16.4432 17.7508L13.4694 15.3613L22.0102 6.30593C22.2837 6.01605 22.3084 5.57205 22.069 5.2536C21.8293 4.93514 21.395 4.83496 21.0397 5.01614L6.99234 12.1768L2.00916 10.7542L25.7033 1.72931C25.9035 1.65301 26.0432 1.63702 26.125 1.63702C26.1752 1.63702 26.2645 1.64299 26.2976 1.6837C26.3412 1.73678 26.3967 1.91774 26.328 2.2573Z" fill="white"/>
</svg>
