<svg width="25" height="14" viewBox="0 0 25 14" fill="none" xmlns="http://www.w3.org/2000/svg">
<path d="M4.68184 9.58475C5.63459 10.8729 6.72936 12.0119 8.14365 12.8178C9.74524 13.7312 11.4696 14.0067 13.2882 13.9227C14.1378 13.8821 14.3933 13.661 14.4325 12.8163C14.4588 12.2376 14.5258 11.6604 14.8114 11.1404C15.0921 10.6304 15.5178 10.5339 16.009 10.8512C16.2535 11.0115 16.4595 11.2121 16.6545 11.4268C17.1331 11.9481 17.5965 12.488 18.0923 12.9922C18.7158 13.6256 19.4552 13.9988 20.3829 13.9227L23.9772 13.9242C24.5556 13.8851 24.8565 13.1776 24.5244 12.5314C24.2906 12.0803 23.9836 11.6791 23.6592 11.2897C22.9247 10.4093 22.0591 9.65896 21.2407 8.86252C20.5031 8.14395 20.4563 7.7268 21.0488 6.89768C21.6974 5.99192 22.3927 5.12219 23.0462 4.22131C23.6558 3.37967 24.2814 2.53926 24.6006 1.53272C24.8051 0.890191 24.6242 0.607101 23.9665 0.493499C23.8526 0.47487 23.7342 0.47487 23.6188 0.47487L19.7077 0.469984C19.226 0.46235 18.9609 0.672453 18.7907 1.09846C18.56 1.67441 18.3231 2.25006 18.0483 2.80403C17.4279 4.06434 16.7337 5.28251 15.7608 6.31257C15.5456 6.53947 15.3069 6.82745 14.9485 6.70926C14.5011 6.54588 14.3685 5.80869 14.3762 5.5598L14.3728 1.0551C14.2859 0.412878 14.1421 0.124902 13.5015 0H9.43919C8.89838 0 8.62538 0.210409 8.33524 0.547857C8.16997 0.744218 8.11824 0.870036 8.46164 0.935388C9.13496 1.06273 9.51723 1.49851 9.617 2.17249C9.77768 3.2508 9.76667 4.33338 9.67332 5.41474C9.64669 5.73051 9.59221 6.04505 9.46704 6.34067C9.27085 6.80576 8.95255 6.89921 8.53632 6.61307C8.16079 6.35471 7.89574 5.9907 7.63498 5.62515C6.6605 4.25093 5.88403 2.77013 5.24927 1.2139C5.06686 0.764068 4.7504 0.491972 4.27325 0.484032C3.10045 0.465403 1.92641 0.462655 0.752073 0.485559C0.0472246 0.49808 -0.163342 0.840414 0.125269 1.47989C1.40244 4.31628 2.82469 7.07328 4.68184 9.58475Z" fill="white"/>
</svg>
