<svg width="64" height="39" viewBox="0 0 64 39" fill="none" xmlns="http://www.w3.org/2000/svg">
<path d="M29.6576 1.72886L1.30525 30.0818C0.648968 30.7375 0.287415 31.6129 0.287415 32.5463C0.287415 33.4797 0.648968 34.3551 1.30525 35.0109L3.39273 37.0989C4.75296 38.4576 6.96371 38.4576 8.32187 37.0989L32.1305 13.2903L55.9655 37.1253C56.6218 37.7811 57.4967 38.1432 58.4296 38.1432C59.3635 38.1432 60.2384 37.7811 60.8952 37.1253L62.9822 35.0373C63.6384 34.381 64 33.5062 64 32.5728C64 31.6393 63.6384 30.764 62.9822 30.1082L34.6039 1.72886C33.9455 1.07154 33.0665 0.710502 32.1321 0.712574C31.194 0.710502 30.3155 1.07154 29.6576 1.72886Z" fill="white"/>
</svg>
